<mxfile host="Electron" modified="2023-05-11T06:29:11.213Z" agent="Mozilla/5.0 (Macintosh; Intel Mac OS X 10_15_7) AppleWebKit/537.36 (KHTML, like Gecko) draw.io/21.2.8 Chrome/112.0.5615.165 Electron/24.2.0 Safari/537.36" etag="KzTp6ZaXx--i6hrWNNms" version="21.2.8" type="device">
  <diagram name="Page-1" id="wP8grPdKK_jDoXeXcml7">
    <mxGraphModel dx="1877" dy="1194" grid="1" gridSize="7.874" guides="1" tooltips="1" connect="1" arrows="1" fold="1" page="1" pageScale="1" pageWidth="1654" pageHeight="1169" math="0" shadow="0">
      <root>
        <mxCell id="0" />
        <mxCell id="1" parent="0" />
        <mxCell id="OfcWUhALJYC8r46bjfaR-20" value="Task execution role (IAM)" style="text;html=1;align=center;verticalAlign=middle;resizable=0;points=[];autosize=1;strokeColor=none;fillColor=none;fontSize=16;" vertex="1" parent="1">
          <mxGeometry x="8" y="240" width="204.724" height="39.37" as="geometry" />
        </mxCell>
        <mxCell id="OfcWUhALJYC8r46bjfaR-21" value="" style="endArrow=classic;html=1;rounded=1;strokeColor=#FFFFFF;" edge="1" parent="1" source="OfcWUhALJYC8r46bjfaR-20" target="OfcWUhALJYC8r46bjfaR-31">
          <mxGeometry width="50" height="50" relative="1" as="geometry">
            <mxPoint x="210" y="277.5" as="sourcePoint" />
            <mxPoint x="290" y="277.5" as="targetPoint" />
          </mxGeometry>
        </mxCell>
        <mxCell id="OfcWUhALJYC8r46bjfaR-11" value="Task definition {" style="text;html=1;align=center;verticalAlign=middle;resizable=0;points=[];autosize=1;strokeColor=none;fillColor=none;fontSize=16;" vertex="1" parent="1">
          <mxGeometry x="420" y="220" width="130" height="30" as="geometry" />
        </mxCell>
        <mxCell id="OfcWUhALJYC8r46bjfaR-12" value="Service {" style="text;html=1;align=center;verticalAlign=middle;resizable=0;points=[];autosize=1;strokeColor=none;fillColor=none;fontSize=16;" vertex="1" parent="1">
          <mxGeometry x="420" y="261" width="90" height="30" as="geometry" />
        </mxCell>
        <mxCell id="OfcWUhALJYC8r46bjfaR-13" value="Container {" style="text;html=1;align=center;verticalAlign=middle;resizable=0;points=[];autosize=1;strokeColor=none;fillColor=none;fontSize=16;" vertex="1" parent="1">
          <mxGeometry x="580" y="345" width="100" height="30" as="geometry" />
        </mxCell>
        <mxCell id="OfcWUhALJYC8r46bjfaR-14" value="Container definition {" style="text;html=1;align=center;verticalAlign=middle;resizable=0;points=[];autosize=1;strokeColor=none;fillColor=none;fontSize=16;" vertex="1" parent="1">
          <mxGeometry x="470" y="305" width="170" height="30" as="geometry" />
        </mxCell>
        <mxCell id="OfcWUhALJYC8r46bjfaR-31" value="AWS Fargate" style="sketch=0;outlineConnect=0;fontColor=#232F3E;gradientColor=none;strokeColor=#ffffff;fillColor=#232F3E;dashed=0;verticalLabelPosition=middle;verticalAlign=bottom;align=center;html=1;whiteSpace=wrap;fontSize=10;fontStyle=1;spacing=3;shape=mxgraph.aws4.productIcon;prIcon=mxgraph.aws4.fargate;" vertex="1" parent="1">
          <mxGeometry x="318.5" y="210" width="80" height="100" as="geometry" />
        </mxCell>
        <mxCell id="OfcWUhALJYC8r46bjfaR-32" value="Amazon ECR" style="sketch=0;outlineConnect=0;fontColor=#232F3E;gradientColor=none;strokeColor=#ffffff;fillColor=#232F3E;dashed=0;verticalLabelPosition=middle;verticalAlign=bottom;align=center;html=1;whiteSpace=wrap;fontSize=10;fontStyle=1;spacing=3;shape=mxgraph.aws4.productIcon;prIcon=mxgraph.aws4.ecr;" vertex="1" parent="1">
          <mxGeometry x="318.5" y="450" width="80" height="100" as="geometry" />
        </mxCell>
        <mxCell id="OfcWUhALJYC8r46bjfaR-35" value="AWS Key Management Service" style="sketch=0;outlineConnect=0;fontColor=#232F3E;gradientColor=none;strokeColor=#ffffff;fillColor=#232F3E;dashed=0;verticalLabelPosition=middle;verticalAlign=bottom;align=center;html=1;whiteSpace=wrap;fontSize=10;fontStyle=1;spacing=3;shape=mxgraph.aws4.productIcon;prIcon=mxgraph.aws4.key_management_service;" vertex="1" parent="1">
          <mxGeometry x="120" y="90" width="80" height="120" as="geometry" />
        </mxCell>
        <mxCell id="OfcWUhALJYC8r46bjfaR-36" value="AWS Secrets Manager" style="sketch=0;outlineConnect=0;fontColor=#232F3E;gradientColor=none;strokeColor=#ffffff;fillColor=#232F3E;dashed=0;verticalLabelPosition=middle;verticalAlign=bottom;align=center;html=1;whiteSpace=wrap;fontSize=10;fontStyle=1;spacing=3;shape=mxgraph.aws4.productIcon;prIcon=mxgraph.aws4.secrets_manager;" vertex="1" parent="1">
          <mxGeometry x="10" y="10" width="80" height="110" as="geometry" />
        </mxCell>
        <mxCell id="OfcWUhALJYC8r46bjfaR-34" value="AWS Identity and Access Management" style="sketch=0;outlineConnect=0;fontColor=#232F3E;gradientColor=none;strokeColor=#ffffff;fillColor=#232F3E;dashed=0;verticalLabelPosition=middle;verticalAlign=bottom;align=center;html=1;whiteSpace=wrap;fontSize=10;fontStyle=1;spacing=3;shape=mxgraph.aws4.productIcon;prIcon=mxgraph.aws4.identity_and_access_management;" vertex="1" parent="1">
          <mxGeometry x="20" y="90" width="80" height="120" as="geometry" />
        </mxCell>
        <mxCell id="OfcWUhALJYC8r46bjfaR-38" value="" style="image;sketch=0;aspect=fixed;html=1;points=[];align=center;fontSize=12;image=img/lib/mscae/Docker.svg;" vertex="1" parent="1">
          <mxGeometry x="190" y="498" width="50" height="41" as="geometry" />
        </mxCell>
        <mxCell id="OfcWUhALJYC8r46bjfaR-39" value="" style="dashed=0;outlineConnect=0;html=1;align=center;labelPosition=center;verticalLabelPosition=bottom;verticalAlign=top;shape=mxgraph.weblogos.github;fontSize=16;" vertex="1" parent="1">
          <mxGeometry x="40" y="481" width="75" height="75" as="geometry" />
        </mxCell>
        <mxCell id="OfcWUhALJYC8r46bjfaR-40" value="" style="image;sketch=0;aspect=fixed;html=1;points=[];align=center;fontSize=12;image=img/lib/mscae/Docker.svg;" vertex="1" parent="1">
          <mxGeometry x="333.5" y="350" width="50" height="41" as="geometry" />
        </mxCell>
        <mxCell id="OfcWUhALJYC8r46bjfaR-41" value="" style="image;sketch=0;aspect=fixed;html=1;points=[];align=center;fontSize=12;image=img/lib/mscae/Docker.svg;" vertex="1" parent="1">
          <mxGeometry x="660" y="380" width="50" height="41" as="geometry" />
        </mxCell>
        <mxCell id="OfcWUhALJYC8r46bjfaR-53" value="Amazon SQS" style="sketch=0;outlineConnect=0;fontColor=#232F3E;gradientColor=none;strokeColor=#ffffff;fillColor=#232F3E;dashed=0;verticalLabelPosition=middle;verticalAlign=bottom;align=center;html=1;whiteSpace=wrap;fontSize=10;fontStyle=1;spacing=3;shape=mxgraph.aws4.productIcon;prIcon=mxgraph.aws4.sqs;" vertex="1" parent="1">
          <mxGeometry x="505" y="30" width="80" height="100" as="geometry" />
        </mxCell>
        <mxCell id="OfcWUhALJYC8r46bjfaR-54" value="" style="group" vertex="1" connectable="0" parent="1">
          <mxGeometry x="830" y="10" width="330" height="430.9" as="geometry" />
        </mxCell>
        <mxCell id="OfcWUhALJYC8r46bjfaR-44" value="Amazon&#xa;Aurora" style="sketch=0;outlineConnect=0;fontColor=#232F3E;gradientColor=none;strokeColor=#ffffff;fillColor=#232F3E;dashed=0;verticalLabelPosition=middle;verticalAlign=bottom;align=center;html=1;whiteSpace=wrap;fontSize=10;fontStyle=1;spacing=3;shape=mxgraph.aws4.productIcon;prIcon=mxgraph.aws4.aurora;" vertex="1" parent="OfcWUhALJYC8r46bjfaR-54">
          <mxGeometry y="185" width="110" height="150" as="geometry" />
        </mxCell>
        <mxCell id="OfcWUhALJYC8r46bjfaR-45" value="AWS Identity and Access Management" style="sketch=0;outlineConnect=0;fontColor=#232F3E;gradientColor=none;strokeColor=#ffffff;fillColor=#232F3E;dashed=0;verticalLabelPosition=middle;verticalAlign=bottom;align=center;html=1;whiteSpace=wrap;fontSize=10;fontStyle=1;spacing=3;shape=mxgraph.aws4.productIcon;prIcon=mxgraph.aws4.identity_and_access_management;" vertex="1" parent="OfcWUhALJYC8r46bjfaR-54">
          <mxGeometry x="250" width="80" height="120" as="geometry" />
        </mxCell>
        <mxCell id="OfcWUhALJYC8r46bjfaR-46" value="AWS Secrets Manager" style="sketch=0;outlineConnect=0;fontColor=#232F3E;gradientColor=none;strokeColor=#ffffff;fillColor=#232F3E;dashed=0;verticalLabelPosition=middle;verticalAlign=bottom;align=center;html=1;whiteSpace=wrap;fontSize=10;fontStyle=1;spacing=3;shape=mxgraph.aws4.productIcon;prIcon=mxgraph.aws4.secrets_manager;" vertex="1" parent="OfcWUhALJYC8r46bjfaR-54">
          <mxGeometry x="30" width="80" height="110" as="geometry" />
        </mxCell>
        <mxCell id="OfcWUhALJYC8r46bjfaR-47" value="AWS Key Management Service" style="sketch=0;outlineConnect=0;fontColor=#232F3E;gradientColor=none;strokeColor=#ffffff;fillColor=#232F3E;dashed=0;verticalLabelPosition=middle;verticalAlign=bottom;align=center;html=1;whiteSpace=wrap;fontSize=10;fontStyle=1;spacing=3;shape=mxgraph.aws4.productIcon;prIcon=mxgraph.aws4.key_management_service;" vertex="1" parent="OfcWUhALJYC8r46bjfaR-54">
          <mxGeometry x="140" width="80" height="120" as="geometry" />
        </mxCell>
        <mxCell id="OfcWUhALJYC8r46bjfaR-63" value="Subnet" style="sketch=0;outlineConnect=0;gradientColor=none;html=1;whiteSpace=wrap;fontSize=12;fontStyle=0;shape=mxgraph.aws4.group;grIcon=mxgraph.aws4.group_subnet;strokeColor=#E8E8E8;fillColor=none;verticalAlign=top;align=left;spacingLeft=30;fontColor=#E8E8E8;dashed=0;" vertex="1" parent="OfcWUhALJYC8r46bjfaR-54">
          <mxGeometry x="-42.60000000000002" y="155.35" width="189.16" height="275.55" as="geometry" />
        </mxCell>
        <mxCell id="OfcWUhALJYC8r46bjfaR-56" value="" style="edgeStyle=orthogonalEdgeStyle;html=1;endArrow=block;elbow=vertical;startArrow=block;startFill=1;endFill=1;strokeColor=#FFFFFF;rounded=0;fontSize=12;startSize=8;endSize=8;fillColor=#f5f5f5;" edge="1" parent="1" target="OfcWUhALJYC8r46bjfaR-53">
          <mxGeometry width="100" relative="1" as="geometry">
            <mxPoint x="354" y="205" as="sourcePoint" />
            <mxPoint x="386" y="165" as="targetPoint" />
            <Array as="points">
              <mxPoint x="354" y="79" />
            </Array>
          </mxGeometry>
        </mxCell>
        <mxCell id="OfcWUhALJYC8r46bjfaR-57" value="" style="edgeStyle=orthogonalEdgeStyle;html=1;endArrow=block;elbow=vertical;startArrow=block;startFill=1;endFill=1;strokeColor=#FFFFFF;rounded=0;fontSize=12;startSize=8;endSize=8;curved=1;" edge="1" parent="1">
          <mxGeometry width="100" relative="1" as="geometry">
            <mxPoint x="591" y="260" as="sourcePoint" />
            <mxPoint x="803" y="260" as="targetPoint" />
          </mxGeometry>
        </mxCell>
        <mxCell id="OfcWUhALJYC8r46bjfaR-58" value="" style="edgeStyle=orthogonalEdgeStyle;html=1;endArrow=block;elbow=vertical;startArrow=none;endFill=1;strokeColor=#FFFFFF;rounded=0;fontSize=12;startSize=8;endSize=8;curved=1;" edge="1" parent="1">
          <mxGeometry width="100" relative="1" as="geometry">
            <mxPoint x="882" y="359" as="sourcePoint" />
            <mxPoint x="882" y="481" as="targetPoint" />
          </mxGeometry>
        </mxCell>
        <mxCell id="OfcWUhALJYC8r46bjfaR-59" value="" style="edgeStyle=orthogonalEdgeStyle;html=1;endArrow=block;elbow=vertical;startArrow=none;endFill=1;strokeColor=#FFFFFF;rounded=0;fontSize=12;startSize=8;endSize=8;curved=1;" edge="1" parent="1">
          <mxGeometry width="100" relative="1" as="geometry">
            <mxPoint x="417" y="520" as="sourcePoint" />
            <mxPoint x="819" y="520" as="targetPoint" />
            <Array as="points">
              <mxPoint x="622" y="520" />
              <mxPoint x="622" y="520" />
            </Array>
          </mxGeometry>
        </mxCell>
        <mxCell id="OfcWUhALJYC8r46bjfaR-61" value="Subnet" style="sketch=0;outlineConnect=0;gradientColor=none;html=1;whiteSpace=wrap;fontSize=12;fontStyle=0;shape=mxgraph.aws4.group;grIcon=mxgraph.aws4.group_subnet;strokeColor=#E8E8E8;fillColor=none;verticalAlign=top;align=left;spacingLeft=30;fontColor=#E8E8E8;dashed=0;" vertex="1" parent="1">
          <mxGeometry x="290" y="120" width="130" height="517.79" as="geometry" />
        </mxCell>
        <mxCell id="OfcWUhALJYC8r46bjfaR-64" value="" style="group" vertex="1" connectable="0" parent="1">
          <mxGeometry x="818.9" y="480.31" width="321.9000000000001" height="314.24999999999994" as="geometry" />
        </mxCell>
        <mxCell id="OfcWUhALJYC8r46bjfaR-48" value="Amazon S3" style="sketch=0;outlineConnect=0;fontColor=#232F3E;gradientColor=none;strokeColor=#ffffff;fillColor=#232F3E;dashed=0;verticalLabelPosition=middle;verticalAlign=bottom;align=center;html=1;whiteSpace=wrap;fontSize=10;fontStyle=1;spacing=3;shape=mxgraph.aws4.productIcon;prIcon=mxgraph.aws4.s3;" vertex="1" parent="OfcWUhALJYC8r46bjfaR-64">
          <mxGeometry width="110" height="140" as="geometry" />
        </mxCell>
        <mxCell id="OfcWUhALJYC8r46bjfaR-50" value="AWS Identity and Access Management" style="sketch=0;outlineConnect=0;fontColor=#232F3E;gradientColor=none;strokeColor=#ffffff;fillColor=#232F3E;dashed=0;verticalLabelPosition=middle;verticalAlign=bottom;align=center;html=1;whiteSpace=wrap;fontSize=10;fontStyle=1;spacing=3;shape=mxgraph.aws4.productIcon;prIcon=mxgraph.aws4.identity_and_access_management;" vertex="1" parent="OfcWUhALJYC8r46bjfaR-64">
          <mxGeometry x="241.9000000000001" y="194.24999999999994" width="80" height="120" as="geometry" />
        </mxCell>
        <mxCell id="OfcWUhALJYC8r46bjfaR-51" value="AWS Secrets Manager" style="sketch=0;outlineConnect=0;fontColor=#232F3E;gradientColor=none;strokeColor=#ffffff;fillColor=#232F3E;dashed=0;verticalLabelPosition=middle;verticalAlign=bottom;align=center;html=1;whiteSpace=wrap;fontSize=10;fontStyle=1;spacing=3;shape=mxgraph.aws4.productIcon;prIcon=mxgraph.aws4.secrets_manager;" vertex="1" parent="OfcWUhALJYC8r46bjfaR-64">
          <mxGeometry x="21.899999999999977" y="204.24999999999994" width="80" height="110" as="geometry" />
        </mxCell>
        <mxCell id="OfcWUhALJYC8r46bjfaR-52" value="AWS Key Management Service" style="sketch=0;outlineConnect=0;fontColor=#232F3E;gradientColor=none;strokeColor=#ffffff;fillColor=#232F3E;dashed=0;verticalLabelPosition=middle;verticalAlign=bottom;align=center;html=1;whiteSpace=wrap;fontSize=10;fontStyle=1;spacing=3;shape=mxgraph.aws4.productIcon;prIcon=mxgraph.aws4.key_management_service;" vertex="1" parent="OfcWUhALJYC8r46bjfaR-64">
          <mxGeometry x="131.89999999999998" y="194.24999999999994" width="80" height="120" as="geometry" />
        </mxCell>
      </root>
    </mxGraphModel>
  </diagram>
</mxfile>
